# xmcd CD database file
#
# Track frame offsets:
#	150
#	23947
#	43005
#	65086
#	80373
#	95206
#	111299
#	122411
#	136534
#	156127
#
# Disc length: 2261 seconds
#
# Revision: 0
# Processed by: cddbd v1.5PL3 Copyright (c) Steve Scherf et al.
# Submitted via: CDex 1.51
#
DISCID=8008d30a
DTITLE=ジャックス - ジャックスの世界
DYEAR=1900
DGENRE=Japanese Rock
TTITLE0=マリアンヌ
TTITLE1=時計をとめて
TTITLE2=からっぽの世界
TTITLE3=われた鏡の中から
TTITLE4=裏切りの季節
TTITLE5=ラブ・ジェネレーション
TTITLE6=薔薇卍
TTITLE7=どこへ
TTITLE8=遠い海へ旅に出た私の恋人
TTITLE9=つめたい空から500マイル
EXTD=
EXTT0=
EXTT1=
EXTT2=
EXTT3=
EXTT4=
EXTT5=
EXTT6=
EXTT7=
EXTT8=
EXTT9=
PLAYORDER=
